<svg id="Layer_1" data-name="Layer 1" xmlns="http://www.w3.org/2000/svg" viewBox="0 0 1372.88 297.11"><defs><style>.cls-1{fill:none;}.cls-2{fill:#447c1d;}</style></defs><title>logonameBlack</title><path d="M85,412.53c-41.56,0-76-36.94-76-61.71,0-24.35,40.3-33.59,40.3-33.59s8.82-13.85,28.13-43.66c19.73-29.39,33.17-39.46,43.66-39.46,8.82,0,20.57,11.34,20.57,15.53,0,5.88-10.08,16.37-10.08,27.71,0,33.17,16.37,47,16.37,72.63,0,21.41-9.66,31.91-9.66,31.91,33.17-8.82,52.06-36.52,52.06-36.52s3.36-5.88,8.4-5.88c4.62,0,8.82,3.78,8.82,8.4,0,3.78-3.78,10.08-3.78,10.08S171.07,412.53,85,412.53ZM54.36,346.2c0,24.35,5.46,47.86,20.57,47.86,13,0,23.51-16.37,23.51-35.27,0-21.41-13-48.28-13-65.49C85.43,293.3,54.36,340.74,54.36,346.2Z" transform="translate(7.89 -116.15)"/><path d="M187.86,349.56c0-84.38,62.55-233.42,123-233.42,18.89,0,35.26,19.31,35.26,34.43,0,35.68-62.13,133.08-104.11,168.77,0,0-3.36,17.21-3.36,31.91,0,19.31,9.66,33.17,26.87,33.17,22.67,0,44.92-36.1,44.92-36.1s3.36-5.88,8.4-5.88c4.62,0,8.82,3.78,8.82,8.4,0,3.78-3.78,10.08-3.78,10.08s-30.65,51.64-72.21,51.64C218.51,412.53,187.86,389,187.86,349.56ZM320.1,144.27c-15.11,0-54.58,76.41-71.79,146.52,29-23.93,76.83-115,76.83-140.64C325.14,146.37,323,144.27,320.1,144.27Z" transform="translate(7.89 -116.15)"/><path d="M499.78,356.7c14.27-26.87,24.35-67.59,24.35-104.11,0-5,2.52-8.4,8.82-8.4,12.59,0,33.59,14.69,33.59,34,0,27.71-15.53,65.49-39,94a29.88,29.88,0,0,0,16,4.62C572,376.85,593,348.3,593,348.3s3.36-5.88,8.4-5.88c4.62,0,8.82,3.78,8.82,8.4,0,3.78-3.78,10.08-3.78,10.08s-23.93,36.1-73,36.1a142.3,142.3,0,0,1-28.55-3.36c-14.69,11.76-31.49,18.89-48.28,18.89-30.65,0-49.54-33.58-49.54-33.58s-26.45,33.58-58.77,33.58c-19.31,0-43.66-18.05-43.66-40.72,0-30.23,22.67-96.14,32.75-119.65,2.1-4.62,6.3-8,11.34-8,12.59,0,33.17,17.63,33.17,23.93,0,25.19-27.29,64.65-27.29,105.37,0,6.72,3.36,12.59,9.66,12.59,13,0,31.07-18.47,41.14-43.24,11.75-29.81,23.51-69.27,31.91-90.68,2.1-4.62,6.3-8,11.75-8,12.17,0,32.75,17.63,32.75,23.93,0,24.35-26,65.07-26,107.05,0,8,3.78,12.59,10.91,12.59,4.62,0,9.66-2.1,14.27-5.46" transform="translate(7.89 -116.15)"/><path d="M720.19,397a116.31,116.31,0,0,1-16.37-1.26A77.14,77.14,0,0,1,656,412.53c-34.84,0-65.49-26.45-65.49-59.19,0-70.53,53.74-109.15,97.4-109.15,34.84,0,61.71,23.51,61.71,62.13,0,22.25-9.66,48.7-26,69.69a32.57,32.57,0,0,0,6.72.84c28.55,0,49.54-28.55,49.54-28.55s3.36-5.88,8.4-5.88c4.62,0,8.82,3.78,8.82,8.4,0,3.78-3.78,10.08-3.78,10.08S769.3,397,720.19,397Zm-28.55-39.46c8.4-21,13-47,13-65.49,0-18.89-6.72-26.45-16.37-26.45-18.89,0-48.28,41.56-48.28,98.24,0,16.79,7.56,28.55,20.15,28.55,4.62,0,8.82-1.68,13-5" transform="translate(7.89 -116.15)"/><path d="M899.87,384.41c22.67,0,44.92-36.1,44.92-36.1s3.36-5.88,8.4-5.88c4.62,0,8.82,3.78,8.82,8.4,0,3.78-3.78,10.08-3.78,10.08S927.57,412.53,886,412.53c-31.91,0-53.32-18.89-53.32-42,0-36.94,26.45-65.91,26.45-78.92,0-8.4-25.19-10.08-25.19-10.08-16,40.72-31.91,66.33-40.72,79.35-1.26,1.68-4.2,6.3-9.24,6.3-4.2,0-8.82-4.62-8.82-8.82,0-3.78,3.36-8,4.62-10.08a259.6,259.6,0,0,0,36.52-74.73s-13.85-10.08-13.85-31.07c0-17.21,14.27-31.07,24.35-31.07,11.75,0,26,13.43,26,21.83,0,10.91-5.46,17.63-5.46,24.35,0,5.88,7.56,8.82,17.63,8.82,18.89,0,24.77-5.46,34.84-5.46s17.21,9.24,17.21,20.15c0,18.89-31.07,54.58-31.07,88.58C886,379.37,891.47,384.41,899.87,384.41Z" transform="translate(7.89 -116.15)"/><path d="M942.27,349.56c0-84.38,62.55-233.42,123-233.42,18.89,0,35.26,19.31,35.26,34.43,0,35.68-62.13,133.08-104.11,168.77,0,0-3.36,17.21-3.36,31.91,0,19.31,9.66,33.17,26.87,33.17,22.67,0,44.92-36.1,44.92-36.1s3.36-5.88,8.4-5.88c4.62,0,8.82,3.78,8.82,8.4,0,3.78-3.78,10.08-3.78,10.08s-30.65,51.64-72.21,51.64C972.91,412.53,942.27,389,942.27,349.56Zm132.24-205.29c-15.11,0-54.58,76.41-71.79,146.52,29-23.93,76.83-115,76.83-140.64C1079.54,146.37,1077.45,144.27,1074.51,144.27Z" transform="translate(7.89 -116.15)"/><path d="M1179,371.39s-34,41.14-68.85,41.14c-23.93,0-47.86-21-47.86-51.64,0-68.85,61.29-116.71,99.92-116.71,16.37,0,26.45,6.72,26.45,6.72,19.31-68.85,54.16-134.76,92.78-134.76,17.21,0,36.52,19.73,36.52,39,0,40.72-92.36,167.93-92.36,167.93a121.11,121.11,0,0,0-1.68,21c0,23.09,7.14,40.3,22.67,40.3,22.67,0,44.5-36.1,44.5-36.1s3.36-5.88,8.4-5.88c4.62,0,8.82,3.78,8.82,8.4,0,3.78-3.78,10.08-3.78,10.08s-30.65,51.64-72.21,51.64C1200.87,412.53,1180.72,386.09,1179,371.39Zm-7.56-103.69c-26.87,0-57.1,57.93-57.1,92.36,0,15.11,5.88,23.93,15.53,23.93,17.63,0,46.18-34.84,46.18-34.84.42-24.77,3.36-49.12,7.14-74.73C1183.24,274.41,1178.62,267.7,1171.48,267.7Zm123.42-119.23c0-4.2-2.1-7.14-5.88-7.14-14.27,0-46.18,77.25-60.87,150.71C1228.16,292,1294.91,185,1294.91,148.47Z" transform="translate(7.89 -116.15)"/><line class="cls-1" y1="297.11" x2="459.12" y2="297.11"/><path class="cls-2" d="M1341.34,351.67c13.65,0,23.66,8.64,23.66,23.21,0,16.38-14.56,38.22-35.49,38.22-14.56,0-23.66-9.56-23.66-24.12C1305.85,372.6,1322.68,351.67,1341.34,351.67Z" transform="translate(7.89 -116.15)"/></svg>