<?xml version="1.0" encoding="UTF-8" standalone="no"?>
<!DOCTYPE svg PUBLIC "-//W3C//DTD SVG 1.1//EN" "http://www.w3.org/Graphics/SVG/1.1/DTD/svg11.dtd">
<svg version="1.1" xmlns="http://www.w3.org/2000/svg" xmlns:xlink="http://www.w3.org/1999/xlink" preserveAspectRatio="xMidYMid meet" viewBox="0 0 640 640" width="2000" height="2000"><defs><path d="M60.75 305.78L61.07 305.83L61.39 305.89L61.72 305.97L62.05 306.07L62.37 306.18L62.7 306.31L63.03 306.44L63.36 306.6L63.69 306.76L64.01 306.93L64.33 307.12L64.65 307.31L64.97 307.52L65.28 307.73L65.58 307.94L65.88 308.17L66.18 308.39L66.46 308.63L66.74 308.86L67.01 309.1L67.27 309.34L67.52 309.59L67.77 309.83L68 310.07L68.22 310.31L68.42 310.55L68.62 310.79L68.8 311.02L68.96 311.25L69.11 311.48L69.25 311.69L69.37 311.9L69.47 312.11L69.56 312.3L69.63 312.49L69.68 312.66L69.71 312.83L69.72 312.98L69.71 313.19L69.68 313.41L69.64 313.63L69.58 313.86L69.51 314.1L69.43 314.35L69.33 314.61L69.23 314.87L69.11 315.14L68.98 315.41L68.85 315.69L68.7 315.98L68.55 316.27L68.39 316.57L68.23 316.88L68.06 317.19L67.89 317.5L67.72 317.83L67.54 318.15L67.37 318.48L67.19 318.82L67.02 319.16L66.84 319.51L66.67 319.86L66.5 320.21L66.34 320.57L66.18 320.93L66.03 321.29L65.89 321.66L65.75 322.03L65.62 322.41L65.51 322.79L65.4 323.17L65.3 323.55L65.22 323.94L65.15 324.32L65.09 324.72L65.05 325.11L65.03 325.5L65.02 325.9L65.03 327.04L65.07 328.15L65.14 329.23L65.23 330.28L65.35 331.3L65.48 332.3L65.64 333.26L65.81 334.21L66 335.13L66.21 336.03L66.43 336.91L66.67 337.77L66.91 338.61L67.17 339.44L67.43 340.25L67.7 341.05L67.98 341.84L68.26 342.62L68.55 343.39L68.83 344.14L69.12 344.9L69.4 345.64L69.68 346.39L69.96 347.13L70.23 347.87L70.5 348.61L70.75 349.35L71 350.1L71.23 350.84L71.46 351.6L71.66 352.36L71.85 353.13L72.03 353.91L72.18 354.7L72.32 355.5L72.43 356.32L72.53 357.15L72.59 358L72.63 358.87L72.65 359.76L72.64 360.49L72.62 361.21L72.58 361.92L72.52 362.6L72.45 363.26L72.37 363.9L72.28 364.53L72.18 365.13L72.07 365.72L71.94 366.29L71.81 366.84L71.68 367.37L71.53 367.88L71.38 368.37L71.22 368.85L71.06 369.3L70.9 369.74L70.73 370.16L70.57 370.56L70.4 370.94L70.23 371.3L70.06 371.64L69.89 371.96L69.73 372.27L69.57 372.56L69.41 372.82L69.26 373.07L69.12 373.3L68.98 373.52L68.85 373.71L68.73 373.89L68.61 374.04L68.51 374.18L68.42 374.3L68.34 374.4L68.27 374.48L68.22 374.55L68.18 374.59L68.15 374.62L68.15 374.63L69.29 374.31L70.41 373.95L71.51 373.57L72.58 373.16L73.63 372.72L74.65 372.26L75.64 371.78L76.61 371.28L77.55 370.77L78.46 370.24L79.35 369.69L80.21 369.14L81.04 368.58L81.84 368.01L82.62 367.44L83.37 366.86L84.09 366.29L84.78 365.71L85.44 365.14L86.08 364.58L86.68 364.02L87.26 363.47L87.81 362.94L88.32 362.41L88.81 361.91L89.27 361.42L89.7 360.95L90.09 360.51L90.46 360.08L90.8 359.69L91.1 359.32L91.37 358.98L91.62 358.68L91.83 358.4L92.01 358.17L92.15 357.97L92.27 357.81L92.35 357.7L92.4 357.63L92.41 357.61L92.42 357.6L92.43 357.59L92.44 357.56L92.46 357.53L92.49 357.49L92.52 357.44L92.55 357.38L92.6 357.32L92.64 357.25L92.7 357.18L92.75 357.1L92.82 357.01L92.88 356.93L92.96 356.83L93.03 356.74L93.12 356.64L93.2 356.54L93.29 356.44L93.39 356.34L93.49 356.24L93.6 356.13L93.71 356.03L93.82 355.93L93.94 355.83L94.06 355.73L94.18 355.64L94.31 355.55L94.45 355.46L94.59 355.37L94.73 355.29L94.87 355.22L95.02 355.15L95.17 355.09L95.33 355.03L95.49 354.98L95.65 354.94L95.81 354.91L95.98 354.88L96.16 354.87L96.33 354.87L96.49 354.87L96.65 354.88L96.81 354.89L96.97 354.92L97.13 354.95L97.28 354.98L97.43 355.02L97.58 355.07L97.73 355.12L97.88 355.17L98.03 355.24L98.17 355.3L98.31 355.38L98.44 355.45L98.58 355.54L98.71 355.62L98.83 355.71L98.96 355.81L99.08 355.91L99.19 356.02L99.31 356.12L99.41 356.24L99.52 356.35L99.61 356.47L99.71 356.6L99.8 356.72L99.88 356.85L99.96 356.99L100.03 357.12L100.1 357.26L100.16 357.4L100.22 357.55L100.27 357.69L100.32 357.84L100.35 357.99L100.38 358.15L100.41 358.3L100.43 358.46L100.44 358.62L100.44 358.78L100.44 358.92L100.43 359.05L100.41 359.2L100.39 359.34L100.37 359.49L100.33 359.64L100.3 359.79L100.26 359.95L100.21 360.1L100.17 360.26L100.12 360.42L100.06 360.57L100 360.73L99.95 360.89L99.88 361.04L99.82 361.2L99.76 361.35L99.69 361.5L99.63 361.65L99.56 361.79L99.49 361.93L99.43 362.07L99.36 362.2L99.3 362.33L99.24 362.46L99.18 362.58L99.12 362.69L99.06 362.8L99.01 362.9L98.95 362.99L98.91 363.08L98.86 363.16L98.82 363.23L98.79 363.3L98.76 363.35L98.73 363.4L98.71 363.43L98.69 363.46L98.68 363.47L98.68 363.48L98.65 363.53L98.56 363.66L98.42 363.89L98.21 364.19L97.95 364.57L97.62 365.03L97.23 365.54L96.77 366.13L96.25 366.76L95.67 367.45L95.02 368.19L94.3 368.97L93.52 369.79L92.66 370.65L91.74 371.53L90.74 372.43L89.68 373.36L88.54 374.3L87.32 375.24L86.04 376.2L84.68 377.15L83.24 378.1L81.72 379.04L80.13 379.96L78.46 380.87L76.71 381.75L74.87 382.6L72.96 383.42L70.96 384.2L68.88 384.94L66.72 385.63L64.47 386.27L62.13 386.85L59.71 387.37L57.2 387.82L54.6 388.2L51.92 388.51L49.14 388.73L46.27 388.87L43.3 388.91L41.86 388.88L40.42 388.79L39.01 388.63L37.6 388.42L36.22 388.15L34.85 387.83L33.5 387.45L32.18 387.03L30.87 386.56L29.59 386.04L28.34 385.48L27.11 384.88L25.9 384.24L24.73 383.57L23.58 382.86L22.46 382.11L21.38 381.34L20.32 380.54L19.31 379.71L18.32 378.86L17.38 377.99L16.47 377.1L15.6 376.19L14.76 375.26L13.98 374.32L13.23 373.37L12.52 372.42L11.86 371.45L11.25 370.48L10.68 369.51L10.17 368.54L9.7 367.57L9.28 366.61L8.91 365.65L8.6 364.7L8.34 363.76L8.14 362.83L7.99 361.92L7.9 361.02L7.87 360.15L7.91 359.31L8.01 358.5L8.17 357.71L8.4 356.95L8.68 356.21L9.01 355.5L9.4 354.82L9.83 354.16L10.3 353.52L10.81 352.91L11.35 352.32L11.93 351.76L12.54 351.22L13.17 350.7L13.82 350.2L14.49 349.73L15.17 349.28L15.86 348.85L16.56 348.45L17.27 348.06L17.97 347.7L18.67 347.35L19.36 347.03L20.05 346.73L20.72 346.45L21.37 346.19L22 345.95L22.6 345.72L23.18 345.52L23.73 345.34L24.24 345.17L24.71 345.03L25.14 344.9L25.52 344.79L25.85 344.7L26.13 344.62L26.36 344.56L26.52 344.52L26.63 344.5L26.66 344.49L26.69 344.44L26.73 344.38L26.78 344.29L26.85 344.18L26.94 344.05L27.04 343.89L27.16 343.71L27.29 343.5L27.44 343.26L27.61 343L27.79 342.72L27.99 342.41L28.2 342.07L28.44 341.71L28.68 341.33L28.95 340.91L29.23 340.48L29.53 340.01L29.84 339.52L30.17 339.01L30.52 338.47L30.89 337.9L31.27 337.3L31.67 336.68L32.09 336.03L32.52 335.36L32.97 334.66L33.44 333.93L33.93 333.18L34.43 332.4L34.95 331.59L35.49 330.75L36.05 329.89L36.63 329L37.22 328.08L37.83 327.14L38.46 326.16L39.11 325.16L39.77 324.13L40.46 323.12L41.13 322.15L41.79 321.2L42.45 320.29L43.09 319.41L43.72 318.56L44.34 317.75L44.95 316.96L45.55 316.21L46.15 315.48L46.73 314.79L47.3 314.12L47.87 313.48L48.42 312.87L48.97 312.29L49.5 311.74L50.03 311.22L50.55 310.72L51.06 310.25L51.57 309.8L52.06 309.38L52.55 308.98L53.03 308.61L53.5 308.27L53.96 307.95L54.42 307.65L54.87 307.38L55.31 307.12L55.75 306.89L56.18 306.69L56.6 306.5L57.02 306.34L57.43 306.19L57.83 306.07L58.23 305.97L58.62 305.88L59 305.82L59.38 305.78L59.76 305.75L60.13 305.74L60.44 305.75L60.75 305.78ZM43.14 333.9L42.7 334.57L42.13 335.45L41.43 336.53L40.63 337.78L39.75 339.16L38.8 340.66L37.8 342.24L36.78 343.88L35.74 345.55L34.72 347.22L33.72 348.87L32.77 350.47L31.89 351.99L31.09 353.41L30.4 354.7L29.82 355.83L29.39 356.77L29.11 357.5L29.02 357.99L29.04 359.61L29.09 361.22L29.18 362.8L29.31 364.36L29.48 365.89L29.69 367.38L29.94 368.82L30.24 370.21L30.58 371.54L30.96 372.8L31.4 373.99L31.88 375.1L32.41 376.12L32.99 377.04L33.63 377.87L34.32 378.58L35.06 379.18L35.86 379.66L36.72 380.02L37.63 380.23L38.61 380.3L39.47 380.25L40.31 380.1L41.12 379.86L41.92 379.52L42.69 379.09L43.43 378.59L44.14 378L44.82 377.34L45.47 376.61L46.07 375.81L46.64 374.95L47.16 374.03L47.64 373.06L48.07 372.04L48.46 370.97L48.79 369.87L49.06 368.72L49.28 367.55L49.44 366.34L49.54 365.11L49.57 363.86L49.53 362.42L49.41 360.95L49.23 359.45L48.99 357.93L48.7 356.4L48.37 354.85L48 353.29L47.6 351.74L47.18 350.18L46.75 348.63L46.32 347.1L45.89 345.57L45.48 344.07L45.08 342.6L44.71 341.15L44.38 339.73L44.08 338.36L43.84 337.03L43.66 335.74L43.55 334.51L43.51 333.33L43.41 333.48L43.14 333.9Z" id="e6651FMr4"></path><path d="M149.9 250.81L150.55 250.89L151.19 251L151.83 251.15L152.45 251.32L153.07 251.51L153.68 251.74L154.28 251.99L154.88 252.26L155.46 252.56L156.03 252.88L156.58 253.22L157.13 253.58L157.66 253.97L158.18 254.37L158.69 254.78L159.18 255.22L159.65 255.66L160.11 256.13L160.56 256.6L160.98 257.09L161.39 257.59L161.78 258.1L162.15 258.62L162.5 259.15L162.83 259.68L163.14 260.22L163.43 260.77L163.7 261.31L163.94 261.87L164.17 262.42L164.36 262.97L164.54 263.53L164.68 264.08L164.81 264.63L164.9 265.18L164.97 265.73L165.02 266.26L165.03 266.8L164.98 268.1L164.82 269.5L164.56 271L164.2 272.59L163.75 274.27L163.2 276.03L162.57 277.86L161.86 279.77L161.07 281.74L160.2 283.77L159.26 285.85L158.25 287.98L157.17 290.15L156.03 292.37L154.83 294.61L153.58 296.88L152.28 299.18L150.93 301.49L149.54 303.81L148.1 306.13L146.63 308.46L145.13 310.78L143.59 313.09L142.03 315.38L140.45 317.65L138.85 319.9L137.24 322.11L135.61 324.28L133.98 326.42L132.34 328.5L130.7 330.53L129.06 332.5L127.43 334.4L125.81 336.24L124.2 338L122.61 339.67L121.04 341.27L119.5 342.77L117.98 344.17L116.5 345.47L116.49 345.49L116.49 345.53L116.47 345.6L116.45 345.7L116.43 345.83L116.4 345.98L116.37 346.16L116.33 346.36L116.29 346.59L116.25 346.83L116.21 347.1L116.16 347.39L116.11 347.7L116.06 348.03L116 348.37L115.95 348.73L115.89 349.11L115.83 349.51L115.77 349.92L115.71 350.34L115.65 350.78L115.6 351.22L115.54 351.68L115.48 352.15L115.43 352.63L115.37 353.12L115.32 353.61L115.27 354.11L115.22 354.62L115.18 355.13L115.13 355.65L115.09 356.17L115.06 356.69L115.03 357.22L115 357.74L114.97 358.27L114.96 358.79L114.94 359.31L114.93 359.83L114.93 360.35L114.94 361.02L114.96 361.68L115.01 362.33L115.06 362.97L115.14 363.6L115.23 364.21L115.34 364.82L115.46 365.41L115.6 365.99L115.76 366.56L115.93 367.12L116.12 367.66L116.32 368.18L116.54 368.7L116.78 369.2L117.03 369.68L117.3 370.15L117.58 370.6L117.87 371.04L118.18 371.45L118.51 371.86L118.85 372.24L119.21 372.61L119.58 372.96L119.97 373.29L120.37 373.6L120.78 373.9L121.21 374.17L121.66 374.43L122.11 374.66L122.59 374.87L123.07 375.07L123.57 375.24L124.09 375.39L124.61 375.52L125.16 375.62L125.71 375.7L126.28 375.76L126.86 375.8L127.46 375.81L128.25 375.78L129.04 375.69L129.83 375.54L130.61 375.34L131.39 375.09L132.16 374.79L132.93 374.44L133.69 374.06L134.44 373.64L135.19 373.18L135.92 372.69L136.64 372.18L137.35 371.63L138.04 371.07L138.73 370.49L139.39 369.89L140.04 369.27L140.68 368.65L141.29 368.03L141.89 367.4L142.47 366.77L143.02 366.14L143.56 365.52L144.07 364.91L144.56 364.31L145.02 363.72L145.46 363.16L145.87 362.62L146.26 362.1L146.61 361.61L146.94 361.15L147.23 360.73L147.5 360.35L147.73 360L147.93 359.7L148.1 359.45L148.23 359.25L148.32 359.1L148.38 359.01L148.4 358.98L148.4 358.98L148.41 358.96L148.42 358.94L148.44 358.9L148.47 358.86L148.5 358.81L148.54 358.76L148.58 358.7L148.63 358.63L148.68 358.55L148.74 358.47L148.8 358.39L148.87 358.3L148.94 358.21L149.02 358.11L149.1 358.02L149.19 357.92L149.28 357.82L149.37 357.71L149.47 357.61L149.58 357.51L149.69 357.41L149.8 357.3L149.92 357.21L150.04 357.11L150.17 357.01L150.3 356.92L150.43 356.83L150.57 356.75L150.71 356.67L150.85 356.59L151 356.53L151.16 356.46L151.31 356.41L151.47 356.36L151.63 356.32L151.8 356.28L151.97 356.26L152.14 356.25L152.31 356.24L152.47 356.24L152.63 356.25L152.79 356.27L152.95 356.29L153.11 356.32L153.26 356.35L153.42 356.39L153.57 356.44L153.72 356.49L153.86 356.55L154.01 356.61L154.15 356.68L154.29 356.75L154.43 356.83L154.56 356.91L154.69 357L154.82 357.09L154.94 357.19L155.06 357.29L155.18 357.39L155.29 357.5L155.4 357.61L155.5 357.73L155.6 357.85L155.69 357.97L155.78 358.1L155.86 358.23L155.94 358.36L156.02 358.5L156.08 358.64L156.15 358.78L156.2 358.92L156.25 359.07L156.3 359.22L156.34 359.37L156.37 359.52L156.39 359.68L156.41 359.84L156.42 360L156.42 360.16L156.42 360.29L156.41 360.43L156.4 360.57L156.38 360.72L156.35 360.86L156.32 361.01L156.28 361.17L156.24 361.32L156.2 361.48L156.15 361.63L156.1 361.79L156.04 361.95L155.99 362.11L155.93 362.26L155.87 362.42L155.8 362.57L155.74 362.72L155.68 362.87L155.61 363.02L155.54 363.17L155.48 363.31L155.41 363.45L155.35 363.58L155.28 363.71L155.22 363.83L155.16 363.95L155.1 364.07L155.04 364.17L154.99 364.27L154.94 364.37L154.89 364.46L154.85 364.54L154.81 364.61L154.77 364.67L154.74 364.73L154.71 364.77L154.69 364.81L154.68 364.83L154.67 364.85L154.66 364.86L154.64 364.9L154.56 365.03L154.43 365.24L154.24 365.53L154.01 365.89L153.73 366.32L153.4 366.81L153.02 367.36L152.6 367.96L152.13 368.62L151.61 369.32L151.05 370.06L150.45 370.83L149.81 371.64L149.12 372.47L148.39 373.33L147.63 374.2L146.82 375.09L145.98 375.99L145.1 376.89L144.18 377.79L143.23 378.69L142.24 379.58L141.22 380.45L140.16 381.31L139.08 382.15L137.96 382.95L136.82 383.73L135.64 384.47L134.43 385.17L133.2 385.82L131.94 386.42L130.65 386.97L129.34 387.47L128.01 387.89L126.65 388.25L125.27 388.54L123.87 388.75L122.44 388.88L121 388.93L119.84 388.91L118.69 388.84L117.55 388.74L116.41 388.6L115.28 388.42L114.17 388.19L113.06 387.93L111.97 387.63L110.89 387.3L109.83 386.92L108.79 386.5L107.76 386.05L106.75 385.56L105.76 385.04L104.79 384.48L103.85 383.88L102.93 383.25L102.04 382.58L101.17 381.87L100.33 381.13L99.52 380.36L98.74 379.55L97.99 378.71L97.27 377.84L96.59 376.93L95.94 375.99L95.33 375.01L94.76 374.01L94.22 372.97L93.73 371.9L93.27 370.8L92.86 369.67L92.5 368.51L92.17 367.32L91.9 366.1L91.67 364.85L91.49 363.57L91.36 362.26L91.28 360.92L91.25 359.56L91.31 356.55L91.47 353.45L91.73 350.24L92.1 346.95L92.56 343.59L93.12 340.16L93.77 336.67L94.51 333.14L95.34 329.56L96.25 325.96L97.24 322.34L98.31 318.71L99.46 315.08L100.68 311.45L101.97 307.84L103.32 304.26L104.74 300.72L106.22 297.22L107.76 293.78L109.36 290.4L111 287.1L112.7 283.88L114.45 280.75L116.24 277.72L118.07 274.8L119.94 272.01L121.84 269.34L123.78 266.81L125.75 264.44L127.74 262.22L129.77 260.16L131.81 258.29L133.87 256.59L135.95 255.1L138.04 253.81L140.14 252.73L142.25 251.88L144.36 251.25L146.48 250.87L148.59 250.75L149.25 250.76L149.9 250.81ZM151.4 264.29L150.56 264.82L149.65 265.56L148.7 266.48L147.69 267.58L146.64 268.86L145.55 270.31L144.43 271.92L143.27 273.68L142.08 275.59L140.88 277.63L139.65 279.81L138.41 282.1L137.16 284.51L135.91 287.02L134.65 289.64L133.4 292.34L132.15 295.12L130.92 297.98L129.71 300.91L128.51 303.9L127.34 306.94L126.21 310.02L125.1 313.13L124.03 316.28L123.01 319.45L122.03 322.63L121.11 325.81L120.24 328.99L119.43 332.16L120.77 330.99L122.15 329.63L123.58 328.1L125.04 326.41L126.53 324.58L128.04 322.62L129.58 320.53L131.12 318.33L132.67 316.04L134.21 313.67L135.75 311.23L137.28 308.72L138.78 306.17L140.26 303.59L141.7 300.99L143.11 298.37L144.47 295.76L145.78 293.17L147.03 290.61L148.22 288.08L149.33 285.61L150.37 283.21L151.33 280.89L152.2 278.65L152.97 276.52L153.64 274.5L154.2 272.62L154.65 270.87L154.98 269.28L155.18 267.85L155.25 266.6L155.25 266.43L155.24 266.27L155.22 266.11L155.2 265.96L155.17 265.81L155.14 265.67L155.1 265.53L155.06 265.4L155.01 265.27L154.96 265.15L154.9 265.03L154.84 264.92L154.77 264.81L154.7 264.71L154.62 264.61L154.54 264.52L154.46 264.44L154.37 264.36L154.27 264.29L154.18 264.22L154.08 264.16L153.97 264.1L153.86 264.05L153.75 264.01L153.64 263.97L153.52 263.93L153.4 263.91L153.28 263.89L153.16 263.87L153.03 263.86L152.9 263.86L152.18 263.97L151.4 264.29Z" id="a86VCNRZyE"></path><path d="M236.66 362.89C243.31 350.36 248.01 331.38 248.01 314.35C248.01 312.02 249.19 310.44 252.13 310.44C257.99 310.44 267.78 317.29 267.78 326.29C267.78 339.21 260.54 356.82 249.6 370.11C251.84 371.52 254.42 372.27 257.06 372.26C270.33 372.28 280.12 358.97 280.12 358.97C280.12 358.97 281.69 356.23 284.03 356.23C286.19 356.23 288.15 357.99 288.15 360.15C288.15 361.91 286.38 364.85 286.38 364.85C286.38 364.85 275.23 381.67 252.35 381.67C247.88 381.6 243.42 381.08 239.04 380.11C232.2 385.59 224.36 388.91 216.54 388.91C202.25 388.91 193.44 373.26 193.44 373.26C193.44 373.26 181.11 388.91 166.05 388.91C157.04 388.91 145.69 380.5 145.69 369.93C145.69 355.84 156.26 325.11 160.96 314.15C161.94 312 163.9 310.42 166.25 310.42C172.12 310.42 181.71 318.64 181.71 321.58C181.71 333.32 168.99 351.72 168.99 370.7C168.99 373.83 170.55 376.57 173.49 376.57C179.55 376.57 187.98 367.96 192.67 356.41C198.15 342.52 203.63 324.12 207.55 314.14C208.52 311.99 210.48 310.41 213.02 310.41C218.7 310.41 228.29 318.63 228.29 321.57C228.29 332.92 216.17 351.9 216.17 371.47C216.17 375.2 217.93 377.34 221.26 377.34C223.41 377.34 225.76 376.36 227.91 374.79" id="aFNQhCAt8"></path><path d="M326.77 310.52L327.95 310.62L329.12 310.76L330.26 310.94L331.39 311.17L332.5 311.42L333.59 311.72L334.66 312.06L335.71 312.43L336.74 312.84L337.74 313.29L338.72 313.78L339.67 314.3L340.6 314.86L341.51 315.45L342.38 316.08L343.23 316.74L344.05 317.44L344.84 318.17L345.6 318.93L346.32 319.73L347.02 320.57L347.68 321.43L348.31 322.33L348.91 323.25L349.46 324.22L349.99 325.21L350.47 326.23L350.92 327.28L351.33 328.36L351.7 329.48L352.03 330.62L352.32 331.79L352.56 332.99L352.76 334.22L352.92 335.47L353.04 336.75L353.11 338.07L353.13 339.4L353.12 340.18L353.1 340.97L353.06 341.77L353 342.57L352.92 343.37L352.83 344.19L352.72 345L352.6 345.82L352.46 346.65L352.31 347.48L352.14 348.31L351.95 349.14L351.75 349.98L351.54 350.82L351.3 351.66L351.06 352.5L350.8 353.34L350.52 354.18L350.23 355.03L349.93 355.87L349.61 356.71L349.28 357.54L348.93 358.38L348.57 359.21L348.19 360.05L347.8 360.87L347.4 361.7L346.99 362.52L346.56 363.33L346.12 364.14L345.66 364.95L345.2 365.75L344.72 366.54L344.22 367.33L343.72 368.11L343.2 368.88L342.67 369.65L342.13 370.4L341.58 371.15L341.01 371.89L341.09 371.91L341.16 371.92L341.24 371.94L341.32 371.96L341.4 371.97L341.47 371.99L341.55 372.01L341.63 372.02L341.71 372.03L341.79 372.05L341.86 372.06L341.94 372.08L342.02 372.09L342.1 372.1L342.18 372.11L342.25 372.12L342.33 372.14L342.41 372.15L342.49 372.16L342.57 372.17L342.65 372.18L342.72 372.19L342.8 372.19L342.88 372.2L342.96 372.21L343.04 372.22L343.12 372.23L343.2 372.23L343.27 372.24L343.35 372.24L343.43 372.25L343.51 372.26L343.59 372.26L343.67 372.26L343.75 372.27L343.83 372.27L343.91 372.27L343.98 372.28L344.06 372.28L344.14 372.28L345.13 372.26L346.11 372.18L347.08 372.07L348.02 371.91L348.96 371.71L349.87 371.47L350.77 371.2L351.66 370.9L352.52 370.56L353.37 370.2L354.19 369.82L355 369.41L355.79 368.98L356.55 368.53L357.3 368.07L358.02 367.6L358.72 367.11L359.4 366.62L360.05 366.13L360.68 365.63L361.29 365.13L361.86 364.63L362.42 364.14L362.94 363.66L363.44 363.18L363.91 362.72L364.35 362.28L364.76 361.85L365.15 361.44L365.5 361.05L365.82 360.69L366.11 360.36L366.37 360.05L366.6 359.78L366.79 359.54L366.95 359.34L367.07 359.19L367.16 359.07L367.22 359L367.24 358.97L367.24 358.97L367.25 358.95L367.26 358.93L367.28 358.9L367.31 358.85L367.34 358.81L367.38 358.75L367.42 358.69L367.47 358.62L367.52 358.54L367.58 358.46L367.64 358.38L367.71 358.29L367.78 358.2L367.86 358.1L367.94 358.01L368.03 357.91L368.12 357.81L368.21 357.7L368.31 357.6L368.42 357.5L368.53 357.4L368.64 357.3L368.76 357.2L368.88 357.1L369.01 357L369.14 356.91L369.27 356.82L369.41 356.74L369.55 356.66L369.7 356.58L369.84 356.52L370 356.45L370.15 356.4L370.31 356.35L370.47 356.31L370.64 356.27L370.81 356.25L370.98 356.24L371.15 356.23L371.31 356.23L371.47 356.24L371.63 356.26L371.79 356.28L371.95 356.31L372.1 356.35L372.26 356.39L372.41 356.43L372.56 356.48L372.7 356.54L372.85 356.6L372.99 356.67L373.13 356.74L373.27 356.82L373.4 356.9L373.53 356.99L373.66 357.08L373.78 357.18L373.9 357.28L374.02 357.38L374.13 357.49L374.24 357.6L374.34 357.72L374.44 357.84L374.53 357.96L374.62 358.09L374.7 358.22L374.78 358.35L374.86 358.49L374.93 358.63L374.99 358.77L375.04 358.91L375.09 359.06L375.14 359.21L375.18 359.36L375.21 359.51L375.23 359.67L375.25 359.83L375.26 359.99L375.26 360.15L375.26 360.28L375.25 360.42L375.24 360.56L375.22 360.71L375.19 360.85L375.16 361.01L375.12 361.16L375.08 361.31L375.04 361.47L374.99 361.62L374.94 361.78L374.88 361.94L374.83 362.1L374.77 362.25L374.71 362.41L374.64 362.56L374.58 362.71L374.52 362.86L374.45 363.01L374.38 363.16L374.32 363.3L374.25 363.44L374.19 363.57L374.12 363.7L374.06 363.82L374 363.94L373.94 364.06L373.88 364.16L373.83 364.27L373.78 364.36L373.73 364.45L373.69 364.53L373.65 364.6L373.61 364.66L373.58 364.72L373.55 364.76L373.53 364.8L373.52 364.82L373.51 364.84L373.5 364.85L373.48 364.88L373.42 364.97L373.31 365.12L373.17 365.32L372.98 365.57L372.75 365.87L372.47 366.21L372.16 366.6L371.8 367.02L371.4 367.48L370.95 367.96L370.47 368.48L369.94 369.02L369.37 369.59L368.75 370.17L368.1 370.77L367.4 371.38L366.65 372L365.87 372.63L365.04 373.26L364.17 373.89L363.26 374.52L362.3 375.14L361.3 375.75L360.26 376.35L359.17 376.93L358.04 377.5L356.87 378.04L355.66 378.56L354.4 379.05L353.09 379.5L351.75 379.92L350.36 380.31L348.93 380.65L347.45 380.95L345.93 381.2L344.37 381.4L342.76 381.55L341.11 381.64L339.41 381.67L339.22 381.67L339.03 381.67L338.84 381.67L338.65 381.66L338.45 381.66L338.26 381.66L338.07 381.65L337.88 381.64L337.69 381.64L337.5 381.63L337.31 381.62L337.11 381.61L336.92 381.6L336.73 381.59L336.54 381.58L336.35 381.57L336.16 381.56L335.97 381.54L335.78 381.53L335.59 381.52L335.39 381.5L335.2 381.49L335.01 381.47L334.82 381.45L334.63 381.43L334.44 381.42L334.25 381.4L334.06 381.38L333.87 381.36L333.68 381.34L333.49 381.31L333.3 381.29L333.11 381.27L332.92 381.24L332.73 381.22L332.54 381.19L332.35 381.17L332.16 381.14L331.97 381.12L331.78 381.09L331.3 381.46L330.82 381.83L330.33 382.18L329.83 382.53L329.34 382.87L328.83 383.2L328.32 383.52L327.81 383.84L327.29 384.14L326.76 384.44L326.23 384.72L325.7 385L325.16 385.27L324.62 385.53L324.08 385.77L323.53 386.02L322.98 386.25L322.42 386.47L321.86 386.68L321.3 386.88L320.73 387.08L320.16 387.26L319.59 387.44L319.01 387.6L318.43 387.76L317.85 387.9L317.26 388.04L316.68 388.17L316.09 388.28L315.5 388.39L314.9 388.49L314.31 388.58L313.71 388.65L313.11 388.72L312.51 388.78L311.91 388.83L311.31 388.86L310.7 388.89L310.09 388.91L309.49 388.91L308.27 388.89L307.07 388.82L305.87 388.71L304.69 388.55L303.51 388.35L302.35 388.11L301.21 387.83L300.08 387.51L298.96 387.15L297.87 386.75L296.79 386.31L295.73 385.84L294.69 385.33L293.68 384.79L292.69 384.21L291.73 383.6L290.79 382.95L289.87 382.28L288.99 381.58L288.13 380.84L287.31 380.08L286.51 379.29L285.75 378.47L285.03 377.63L284.34 376.76L283.68 375.87L283.06 374.95L282.48 374.01L281.94 373.05L281.44 372.07L280.99 371.07L280.57 370.05L280.2 369.01L279.88 367.96L279.6 366.89L279.37 365.8L279.19 364.7L279.06 363.59L278.98 362.46L278.96 361.32L279 358.88L279.14 356.5L279.37 354.18L279.68 351.91L280.07 349.7L280.55 347.54L281.1 345.44L281.73 343.4L282.42 341.42L283.19 339.5L284.02 337.64L284.92 335.83L285.88 334.09L286.89 332.4L287.96 330.77L289.08 329.21L290.25 327.7L291.47 326.26L292.73 324.87L294.03 323.55L295.37 322.29L296.74 321.09L298.15 319.95L299.59 318.88L301.05 317.87L302.54 316.92L304.05 316.04L305.58 315.22L307.12 314.46L308.68 313.77L310.25 313.14L311.83 312.57L313.41 312.08L314.99 311.64L316.57 311.28L318.15 310.98L319.72 310.74L321.28 310.57L322.83 310.47L324.36 310.44L325.57 310.46L326.77 310.52ZM322.33 320.79L321.18 321.24L320 321.86L318.81 322.65L317.6 323.6L316.39 324.71L315.18 325.97L313.99 327.38L312.8 328.93L311.65 330.62L310.52 332.45L309.44 334.4L308.4 336.48L307.41 338.68L306.48 341L305.62 343.42L304.84 345.95L304.13 348.58L303.52 351.31L303 354.13L302.58 357.03L302.28 360.02L302.09 363.08L302.02 366.22L302.04 367.14L302.09 368.05L302.17 368.93L302.29 369.78L302.44 370.61L302.62 371.4L302.83 372.17L303.07 372.91L303.34 373.61L303.64 374.28L303.97 374.92L304.33 375.52L304.72 376.08L305.13 376.61L305.58 377.1L306.05 377.54L306.54 377.94L307.07 378.31L307.61 378.62L308.19 378.89L308.79 379.12L309.41 379.29L310.05 379.42L310.72 379.5L311.42 379.53L311.68 379.52L311.93 379.51L312.18 379.49L312.44 379.47L312.69 379.43L312.94 379.39L313.18 379.34L313.43 379.29L313.68 379.22L313.92 379.15L314.16 379.07L314.4 378.99L314.64 378.89L314.88 378.79L315.12 378.68L315.36 378.57L315.6 378.45L315.83 378.31L316.07 378.18L316.31 378.03L316.54 377.88L316.78 377.72L317.01 377.55L317.24 377.38L317.48 377.19L326.1 363.28L326.56 362.09L327.01 360.89L327.43 359.66L327.84 358.43L328.24 357.17L328.61 355.91L328.97 354.64L329.31 353.36L329.63 352.07L329.93 350.79L330.21 349.5L330.48 348.22L330.72 346.94L330.95 345.66L331.16 344.4L331.35 343.15L331.52 341.91L331.67 340.69L331.8 339.48L331.91 338.3L332 337.13L332.07 335.99L332.12 334.88L332.15 333.8L332.16 332.75L332.15 331.72L332.1 330.74L332.03 329.8L331.93 328.92L331.8 328.09L331.65 327.3L331.46 326.56L331.26 325.86L331.03 325.21L330.77 324.61L330.49 324.04L330.19 323.53L329.87 323.05L329.53 322.62L329.16 322.22L328.78 321.87L328.37 321.56L327.95 321.29L327.51 321.05L327.05 320.86L326.58 320.7L326.09 320.57L325.58 320.49L325.06 320.44L324.53 320.42L323.45 320.51L322.33 320.79Z" id="aQ6xAud00"></path><path d="M444.11 358.98C444.11 358.98 445.68 356.24 448.03 356.24C450.18 356.24 452.14 358 452.14 360.15C452.14 361.91 450.38 364.85 450.38 364.85C450.38 364.85 436.09 388.91 416.71 388.91C401.83 388.91 391.85 380.11 391.85 369.34C391.85 352.11 404.18 338.61 404.18 332.54C404.18 328.63 392.44 327.85 392.44 327.85C384.98 346.83 377.56 358.77 373.46 364.84C372.87 365.62 371.5 367.77 369.15 367.77C367.19 367.77 365.04 365.62 365.04 363.66C365.04 361.9 366.6 359.93 367.19 358.96C374.7 348.34 380.45 336.58 384.22 324.13C384.22 324.13 377.76 319.43 377.76 309.64C377.76 301.62 384.41 295.16 389.11 295.16C394.59 295.16 401.23 301.42 401.23 305.33C401.23 310.42 398.69 313.55 398.69 316.69C398.69 319.43 402.21 320.8 406.9 320.8C415.71 320.8 418.45 318.25 423.15 318.25C427.84 318.25 431.17 322.56 431.17 327.65C431.17 336.45 416.68 353.09 416.68 368.94C416.71 373.46 419.26 375.81 423.17 375.81C433.74 375.81 439.93 362.34 444.11 358.98Z" id="aPSAE2QVZ"></path><path d="M501.59 250.81L502.24 250.89L502.88 251L503.51 251.15L504.14 251.32L504.76 251.51L505.37 251.74L505.97 251.99L506.56 252.26L507.14 252.56L507.71 252.88L508.27 253.22L508.82 253.58L509.35 253.97L509.87 254.37L510.37 254.78L510.86 255.22L511.34 255.66L511.8 256.13L512.24 256.6L512.67 257.09L513.08 257.59L513.47 258.1L513.84 258.62L514.19 259.15L514.52 259.68L514.83 260.22L515.12 260.77L515.39 261.31L515.63 261.87L515.85 262.42L516.05 262.97L516.22 263.53L516.37 264.08L516.49 264.63L516.59 265.18L516.66 265.73L516.7 266.26L516.72 266.8L516.66 268.1L516.5 269.5L516.24 271L515.89 272.59L515.43 274.27L514.89 276.03L514.26 277.86L513.55 279.77L512.75 281.74L511.88 283.77L510.94 285.85L509.93 287.98L508.85 290.15L507.72 292.37L506.52 294.61L505.27 296.88L503.97 299.18L502.62 301.49L501.22 303.81L499.79 306.13L498.32 308.46L496.81 310.78L495.28 313.09L493.72 315.38L492.14 317.65L490.54 319.9L488.92 322.11L487.3 324.28L485.66 326.42L484.02 328.5L482.38 330.53L480.74 332.5L479.11 334.4L477.49 336.24L475.89 338L474.3 339.67L472.73 341.27L471.18 342.77L469.67 344.17L468.18 345.47L468.18 345.49L468.17 345.53L468.16 345.6L468.14 345.7L468.12 345.83L468.09 345.98L468.06 346.16L468.02 346.36L467.98 346.59L467.94 346.83L467.89 347.1L467.84 347.39L467.79 347.7L467.74 348.03L467.69 348.37L467.63 348.73L467.57 349.11L467.52 349.51L467.46 349.92L467.4 350.34L467.34 350.78L467.28 351.22L467.22 351.68L467.17 352.15L467.11 352.63L467.06 353.12L467 353.61L466.95 354.11L466.91 354.62L466.86 355.13L466.82 355.65L466.78 356.17L466.74 356.69L466.71 357.22L466.68 357.74L466.66 358.27L466.64 358.79L466.63 359.31L466.62 359.83L466.62 360.35L466.62 361.02L466.65 361.68L466.69 362.33L466.75 362.97L466.83 363.6L466.92 364.21L467.02 364.82L467.15 365.41L467.29 365.99L467.45 366.56L467.62 367.12L467.81 367.66L468.01 368.18L468.23 368.7L468.46 369.2L468.71 369.68L468.98 370.15L469.26 370.6L469.56 371.04L469.87 371.45L470.2 371.86L470.54 372.24L470.9 372.61L471.27 372.96L471.65 373.29L472.05 373.6L472.47 373.9L472.9 374.17L473.34 374.43L473.8 374.66L474.27 374.87L474.76 375.07L475.26 375.24L475.77 375.39L476.3 375.52L476.84 375.62L477.4 375.7L477.97 375.76L478.55 375.8L479.14 375.81L479.93 375.78L480.72 375.69L481.51 375.54L482.3 375.34L483.08 375.09L483.85 374.79L484.62 374.44L485.38 374.06L486.13 373.64L486.87 373.18L487.6 372.69L488.33 372.18L489.03 371.63L489.73 371.07L490.41 370.49L491.08 369.89L491.73 369.27L492.36 368.65L492.98 368.03L493.58 367.4L494.15 366.77L494.71 366.14L495.24 365.52L495.76 364.91L496.24 364.31L496.71 363.72L497.15 363.16L497.56 362.62L497.94 362.1L498.3 361.61L498.62 361.15L498.92 360.73L499.18 360.35L499.42 360L499.62 359.7L499.78 359.45L499.91 359.25L500.01 359.1L500.06 359.01L500.08 358.98L500.09 358.98L500.09 358.96L500.11 358.94L500.13 358.9L500.15 358.86L500.19 358.81L500.22 358.76L500.26 358.7L500.31 358.63L500.36 358.55L500.42 358.47L500.48 358.39L500.55 358.3L500.62 358.21L500.7 358.11L500.78 358.02L500.87 357.92L500.96 357.82L501.06 357.71L501.16 357.61L501.26 357.51L501.37 357.41L501.49 357.3L501.61 357.21L501.73 357.11L501.85 357.01L501.98 356.92L502.12 356.83L502.25 356.75L502.4 356.67L502.54 356.59L502.69 356.53L502.84 356.46L503 356.41L503.16 356.36L503.32 356.32L503.48 356.28L503.65 356.26L503.82 356.25L504 356.24L504.16 356.24L504.32 356.25L504.48 356.27L504.64 356.29L504.79 356.32L504.95 356.35L505.1 356.39L505.25 356.44L505.4 356.49L505.55 356.55L505.69 356.61L505.84 356.68L505.98 356.75L506.11 356.83L506.25 356.91L506.38 357L506.5 357.09L506.63 357.19L506.75 357.29L506.86 357.39L506.97 357.5L507.08 357.61L507.18 357.73L507.28 357.85L507.38 357.97L507.47 358.1L507.55 358.23L507.63 358.36L507.7 358.5L507.77 358.64L507.83 358.78L507.89 358.92L507.94 359.07L507.98 359.22L508.02 359.37L508.05 359.52L508.08 359.68L508.1 359.84L508.11 360L508.11 360.16L508.11 360.29L508.1 360.43L508.08 360.57L508.06 360.72L508.03 360.86L508 361.01L507.97 361.17L507.93 361.32L507.88 361.48L507.83 361.63L507.78 361.79L507.73 361.95L507.67 362.11L507.61 362.26L507.55 362.42L507.49 362.57L507.43 362.72L507.36 362.87L507.3 363.02L507.23 363.17L507.16 363.31L507.1 363.45L507.03 363.58L506.97 363.71L506.91 363.83L506.84 363.95L506.79 364.07L506.73 364.17L506.67 364.27L506.62 364.37L506.58 364.46L506.53 364.54L506.49 364.61L506.46 364.67L506.42 364.73L506.4 364.77L506.38 364.81L506.36 364.83L506.35 364.85L506.35 364.86L506.32 364.9L506.24 365.03L506.11 365.24L505.93 365.53L505.7 365.89L505.41 366.32L505.08 366.81L504.71 367.36L504.28 367.96L503.81 368.62L503.3 369.32L502.74 370.06L502.14 370.83L501.49 371.64L500.81 372.47L500.08 373.33L499.31 374.2L498.51 375.09L497.66 375.99L496.78 376.89L495.87 377.79L494.91 378.69L493.93 379.58L492.9 380.45L491.85 381.31L490.76 382.15L489.65 382.95L488.5 383.73L487.32 384.47L486.12 385.17L484.89 385.82L483.63 386.42L482.34 386.97L481.03 387.47L479.69 387.89L478.34 388.25L476.96 388.54L475.55 388.75L474.13 388.88L472.69 388.93L471.53 388.91L470.38 388.84L469.23 388.74L468.1 388.6L466.97 388.42L465.85 388.19L464.75 387.93L463.65 387.63L462.58 387.3L461.51 386.92L460.47 386.5L459.44 386.05L458.43 385.56L457.44 385.04L456.48 384.48L455.53 383.88L454.62 383.25L453.72 382.58L452.85 381.87L452.01 381.13L451.2 380.36L450.42 379.55L449.67 378.71L448.96 377.84L448.27 376.93L447.63 375.99L447.02 375.01L446.44 374.01L445.91 372.97L445.41 371.9L444.96 370.8L444.55 369.67L444.18 368.51L443.86 367.32L443.58 366.1L443.35 364.85L443.17 363.57L443.04 362.26L442.97 360.92L442.94 359.56L442.99 356.55L443.15 353.45L443.42 350.24L443.78 346.95L444.25 343.59L444.81 340.16L445.46 336.67L446.2 333.14L447.02 329.56L447.94 325.96L448.93 322.34L450 318.71L451.14 315.08L452.36 311.45L453.65 307.84L455.01 304.26L456.43 300.72L457.91 297.22L459.45 293.78L461.04 290.4L462.69 287.1L464.39 283.88L466.13 280.75L467.92 277.72L469.75 274.8L471.62 272.01L473.53 269.34L475.47 266.81L477.43 264.44L479.43 262.22L481.45 260.16L483.49 258.29L485.56 256.59L487.63 255.1L489.72 253.81L491.83 252.73L493.93 251.88L496.05 251.25L498.16 250.87L500.28 250.75L500.94 250.76L501.59 250.81ZM503.09 264.29L502.24 264.82L501.34 265.56L500.38 266.48L499.38 267.58L498.33 268.86L497.24 270.31L496.11 271.92L494.95 273.68L493.77 275.59L492.56 277.63L491.34 279.81L490.1 282.1L488.85 284.51L487.59 287.02L486.34 289.64L485.08 292.34L483.84 295.12L482.61 297.98L481.39 300.91L480.2 303.9L479.03 306.94L477.89 310.02L476.79 313.13L475.72 316.28L474.7 319.45L473.72 322.63L472.8 325.81L471.93 328.99L471.12 332.16L472.45 330.99L473.84 329.63L475.26 328.1L476.72 326.41L478.22 324.58L479.73 322.62L481.26 320.53L482.81 318.33L484.35 316.04L485.9 313.67L487.44 311.23L488.96 308.72L490.47 306.17L491.94 303.59L493.39 300.99L494.79 298.37L496.16 295.76L497.46 293.17L498.71 290.61L499.9 288.08L501.02 285.61L502.06 283.21L503.01 280.89L503.88 278.65L504.65 276.52L505.33 274.5L505.89 272.62L506.34 270.87L506.67 269.28L506.87 267.85L506.94 266.6L506.93 266.43L506.92 266.27L506.91 266.11L506.89 265.96L506.86 265.81L506.83 265.67L506.79 265.53L506.75 265.4L506.7 265.27L506.65 265.15L506.59 265.03L506.53 264.92L506.46 264.81L506.39 264.71L506.31 264.61L506.23 264.52L506.15 264.44L506.06 264.36L505.97 264.29L505.87 264.22L505.77 264.16L505.67 264.1L505.56 264.05L505.45 264.01L505.33 263.97L505.22 263.93L505.1 263.91L504.97 263.89L504.85 263.87L504.72 263.86L504.59 263.86L503.87 263.97L503.09 264.29Z" id="b27RCyOSl7"></path><path d="M602.26 250.81L602.87 250.9L603.48 251.01L604.09 251.16L604.69 251.33L605.3 251.54L605.9 251.77L606.5 252.03L607.1 252.32L607.68 252.64L608.27 252.97L608.84 253.34L609.41 253.72L609.96 254.13L610.51 254.56L611.04 255.01L611.57 255.48L612.08 255.96L612.57 256.47L613.05 256.99L613.52 257.53L613.96 258.08L614.39 258.65L614.8 259.23L615.2 259.82L615.57 260.42L615.91 261.04L616.24 261.66L616.54 262.3L616.82 262.94L617.08 263.59L617.3 264.24L617.5 264.9L617.67 265.57L617.82 266.23L617.93 266.91L618.01 267.58L618.06 268.25L618.08 268.93L618 270.42L617.76 272.06L617.39 273.84L616.87 275.73L616.23 277.74L615.46 279.85L614.58 282.06L613.6 284.36L612.52 286.73L611.35 289.17L610.1 291.66L608.78 294.21L607.39 296.79L605.94 299.4L604.45 302.04L602.92 304.68L601.36 307.33L599.77 309.97L598.16 312.59L596.55 315.19L594.93 317.75L593.33 320.26L591.74 322.72L590.18 325.12L588.64 327.45L587.15 329.69L585.71 331.84L584.32 333.89L583 335.83L581.75 337.65L580.58 339.34L579.5 340.89L578.51 342.3L577.64 343.54L576.87 344.63L576.23 345.53L575.71 346.25L575.33 346.78L575.1 347.1L575.02 347.21L574.98 347.45L574.94 347.7L574.9 347.94L574.87 348.18L574.83 348.43L574.79 348.67L574.76 348.91L574.73 349.16L574.7 349.4L574.66 349.64L574.63 349.89L574.61 350.13L574.58 350.38L574.55 350.62L574.53 350.86L574.5 351.11L574.48 351.35L574.46 351.6L574.44 351.84L574.42 352.09L574.4 352.33L574.38 352.58L574.36 352.82L574.35 353.07L574.33 353.31L574.32 353.56L574.3 353.8L574.29 354.05L574.28 354.3L574.27 354.54L574.26 354.79L574.26 355.03L574.25 355.28L574.25 355.52L574.24 355.77L574.24 356.02L574.24 356.26L574.24 356.51L574.24 356.75L574.24 357L574.24 357.8L574.26 358.59L574.29 359.37L574.34 360.14L574.39 360.9L574.46 361.64L574.55 362.37L574.64 363.09L574.75 363.79L574.87 364.48L575 365.15L575.15 365.81L575.31 366.45L575.49 367.07L575.67 367.67L575.87 368.26L576.09 368.83L576.31 369.38L576.55 369.92L576.81 370.43L577.07 370.92L577.35 371.39L577.65 371.85L577.96 372.27L578.28 372.68L578.62 373.07L578.97 373.43L579.33 373.76L579.71 374.08L580.1 374.37L580.51 374.63L580.93 374.87L581.36 375.08L581.81 375.26L582.27 375.42L582.75 375.55L583.24 375.65L583.75 375.73L584.27 375.77L584.81 375.79L585.6 375.76L586.39 375.66L587.17 375.52L587.95 375.32L588.73 375.06L589.5 374.76L590.26 374.42L591.02 374.04L591.77 373.61L592.5 373.16L593.23 372.67L593.95 372.15L594.65 371.61L595.34 371.05L596.01 370.46L596.67 369.86L597.32 369.25L597.94 368.63L598.55 368L599.14 367.37L599.71 366.74L600.26 366.11L600.79 365.49L601.29 364.88L601.77 364.28L602.23 363.7L602.66 363.14L603.07 362.59L603.44 362.08L603.79 361.59L604.12 361.13L604.41 360.71L604.67 360.32L604.9 359.98L605.09 359.68L605.25 359.43L605.38 359.23L605.47 359.08L605.53 358.99L605.55 358.96L605.55 358.95L605.56 358.94L605.58 358.91L605.6 358.88L605.62 358.84L605.65 358.79L605.69 358.74L605.73 358.67L605.78 358.6L605.83 358.53L605.89 358.45L605.95 358.37L606.02 358.28L606.09 358.19L606.17 358.09L606.25 357.99L606.34 357.89L606.43 357.79L606.53 357.69L606.63 357.59L606.73 357.48L606.84 357.38L606.95 357.28L607.07 357.18L607.19 357.08L607.32 356.99L607.45 356.9L607.58 356.81L607.72 356.72L607.86 356.65L608.01 356.57L608.16 356.5L608.31 356.44L608.46 356.38L608.62 356.33L608.79 356.29L608.95 356.26L609.12 356.24L609.29 356.22L609.47 356.22L609.63 356.22L609.79 356.23L609.95 356.25L610.1 356.27L610.26 356.3L610.42 356.33L610.57 356.37L610.72 356.42L610.87 356.47L611.02 356.53L611.16 356.59L611.3 356.66L611.44 356.73L611.58 356.81L611.71 356.89L611.84 356.98L611.97 357.07L612.09 357.16L612.21 357.26L612.33 357.37L612.44 357.48L612.55 357.59L612.65 357.7L612.75 357.82L612.84 357.95L612.93 358.07L613.02 358.2L613.1 358.34L613.17 358.47L613.24 358.61L613.3 358.75L613.36 358.9L613.41 359.05L613.45 359.19L613.49 359.35L613.52 359.5L613.55 359.66L613.56 359.81L613.57 359.97L613.58 360.13L613.57 360.27L613.56 360.41L613.55 360.55L613.53 360.69L613.5 360.84L613.47 360.99L613.43 361.14L613.39 361.3L613.35 361.45L613.3 361.61L613.25 361.77L613.2 361.92L613.14 362.08L613.08 362.24L613.02 362.39L612.96 362.55L612.89 362.7L612.83 362.85L612.76 363L612.7 363.14L612.63 363.28L612.56 363.42L612.5 363.56L612.44 363.69L612.37 363.81L612.31 363.93L612.25 364.04L612.2 364.15L612.14 364.25L612.09 364.35L612.04 364.43L612 364.51L611.96 364.58L611.92 364.65L611.89 364.7L611.86 364.75L611.84 364.78L611.83 364.81L611.82 364.83L611.82 364.83L611.79 364.88L611.71 365.01L611.58 365.22L611.4 365.51L611.16 365.87L610.88 366.29L610.55 366.79L610.17 367.34L609.75 367.94L609.28 368.59L608.76 369.29L608.21 370.03L607.6 370.81L606.96 371.61L606.27 372.45L605.55 373.31L604.78 374.18L603.97 375.07L603.13 375.97L602.25 376.87L601.33 377.77L600.38 378.67L599.39 379.56L598.37 380.43L597.32 381.29L596.23 382.12L595.12 382.93L593.97 383.71L592.79 384.44L591.59 385.14L590.35 385.8L589.09 386.4L587.81 386.95L586.5 387.44L585.16 387.87L583.8 388.23L582.42 388.52L581.02 388.73L579.6 388.86L578.15 388.91L577.06 388.88L575.99 388.82L574.94 388.71L573.92 388.56L572.91 388.37L571.92 388.14L570.96 387.87L570.01 387.57L569.09 387.24L568.2 386.88L567.32 386.48L566.47 386.06L565.64 385.62L564.84 385.15L564.06 384.65L563.3 384.14L562.57 383.6L561.86 383.05L561.18 382.48L560.53 381.89L559.9 381.3L559.3 380.69L558.72 380.07L558.17 379.45L557.65 378.82L557.15 378.18L556.69 377.54L556.25 376.9L555.84 376.26L555.46 375.62L555.1 374.99L554.78 374.36L554.49 373.74L554.23 373.13L553.99 372.53L553.79 371.94L553.62 371.36L553.48 370.8L553.37 370.26L553.3 369.74L553.27 369.77L553.18 369.88L553.04 370.04L552.84 370.27L552.58 370.56L552.28 370.9L551.92 371.29L551.52 371.73L551.07 372.21L550.57 372.73L550.02 373.29L549.43 373.88L548.8 374.5L548.13 375.14L547.42 375.8L546.68 376.49L545.89 377.18L545.08 377.89L544.22 378.61L543.34 379.33L542.43 380.04L541.48 380.76L540.51 381.47L539.52 382.16L538.5 382.85L537.45 383.51L536.38 384.15L535.3 384.77L534.19 385.36L533.07 385.92L531.93 386.44L530.78 386.92L529.61 387.36L528.43 387.75L527.24 388.09L526.05 388.38L524.84 388.61L523.63 388.78L522.42 388.88L521.2 388.91L520.36 388.9L519.53 388.84L518.7 388.75L517.86 388.63L517.04 388.47L516.22 388.27L515.4 388.04L514.6 387.78L513.8 387.49L513.01 387.16L512.23 386.8L511.46 386.41L510.71 385.99L509.97 385.54L509.24 385.06L508.53 384.55L507.83 384.02L507.16 383.45L506.5 382.86L505.86 382.23L505.24 381.59L504.65 380.91L504.08 380.21L503.53 379.49L503.01 378.74L502.51 377.96L502.04 377.16L501.6 376.34L501.19 375.5L500.81 374.63L500.46 373.74L500.14 372.83L499.85 371.9L499.6 370.95L499.39 369.98L499.21 368.99L499.07 367.98L498.97 366.95L498.91 365.9L498.89 364.84L498.94 362.45L499.1 360.1L499.35 357.79L499.71 355.52L500.15 353.29L500.69 351.1L501.3 348.96L502 346.86L502.78 344.81L503.64 342.8L504.56 340.84L505.55 338.93L506.6 337.08L507.71 335.27L508.88 333.52L510.1 331.82L511.37 330.18L512.68 328.6L514.03 327.07L515.43 325.6L516.85 324.19L518.31 322.85L519.79 321.56L521.29 320.34L522.82 319.19L524.36 318.1L525.91 317.07L527.47 316.12L529.03 315.24L530.59 314.42L532.16 313.68L533.71 313.01L535.25 312.42L536.78 311.9L538.3 311.46L539.79 311.09L541.26 310.81L542.69 310.6L544.1 310.48L545.47 310.43L546.04 310.44L546.59 310.46L547.14 310.48L547.67 310.52L548.19 310.57L548.7 310.62L549.2 310.69L549.68 310.76L550.16 310.84L550.62 310.92L551.06 311.01L551.5 311.11L551.92 311.21L552.33 311.32L552.72 311.43L553.11 311.54L553.47 311.65L553.83 311.77L554.17 311.88L554.5 312L554.81 312.12L555.11 312.23L555.39 312.35L555.66 312.46L555.91 312.58L556.15 312.68L556.37 312.79L556.58 312.89L556.77 312.99L556.95 313.08L557.11 313.16L557.25 313.24L557.38 313.31L557.49 313.38L557.58 313.43L557.66 313.48L557.72 313.52L557.76 313.54L557.79 313.56L557.8 313.57L558.49 311.16L559.2 308.77L559.95 306.38L560.71 304.01L561.5 301.65L562.32 299.32L563.16 297L564.03 294.71L564.91 292.44L565.82 290.21L566.76 288.01L567.71 285.84L568.68 283.72L569.68 281.63L570.69 279.58L571.73 277.59L572.78 275.64L573.85 273.74L574.94 271.9L576.05 270.12L577.17 268.4L578.31 266.74L579.47 265.14L580.64 263.61L581.83 262.16L583.03 260.78L584.24 259.47L585.47 258.25L586.71 257.11L587.96 256.05L589.23 255.08L590.5 254.2L591.79 253.41L593.09 252.72L594.39 252.13L595.71 251.64L597.03 251.25L598.36 250.97L599.7 250.8L601.05 250.75L601.65 250.76L602.26 250.81ZM546.98 321.83L545.57 322.35L544.16 323.05L542.76 323.94L541.37 324.98L539.99 326.18L538.64 327.52L537.31 328.99L536.01 330.58L534.75 332.28L533.52 334.07L532.34 335.94L531.21 337.89L530.13 339.89L529.11 341.95L528.16 344.04L527.27 346.16L526.46 348.29L525.72 350.42L525.07 352.55L524.5 354.65L524.03 356.72L523.65 358.75L523.38 360.72L523.21 362.63L523.15 364.45L523.16 365.22L523.2 365.97L523.25 366.69L523.33 367.39L523.43 368.06L523.55 368.7L523.69 369.32L523.85 369.91L524.03 370.48L524.23 371.01L524.45 371.52L524.69 372L524.95 372.46L525.23 372.88L525.52 373.28L525.84 373.64L526.17 373.98L526.52 374.28L526.88 374.56L527.27 374.8L527.67 375.01L528.08 375.19L528.51 375.34L528.96 375.46L529.42 375.54L529.9 375.59L530.39 375.61L531.33 375.54L532.3 375.36L533.3 375.05L534.32 374.65L535.37 374.15L536.42 373.56L537.49 372.9L538.56 372.18L539.63 371.4L540.69 370.58L541.73 369.72L542.75 368.84L543.75 367.94L544.72 367.04L545.65 366.14L546.54 365.26L547.38 364.4L548.17 363.58L548.89 362.8L549.56 362.08L550.15 361.42L550.67 360.83L551.1 360.33L551.45 359.93L551.71 359.62L551.87 359.43L551.92 359.37L551.95 358.09L551.98 356.81L552.03 355.53L552.08 354.25L552.15 352.97L552.22 351.69L552.3 350.41L552.38 349.14L552.48 347.86L552.58 346.58L552.69 345.3L552.81 344.02L552.93 342.74L553.06 341.45L553.2 340.17L553.34 338.88L553.49 337.59L553.65 336.3L553.81 335.01L553.97 333.71L554.14 332.41L554.32 331.11L554.49 329.8L554.68 328.49L554.86 327.17L555.06 325.86L555.25 324.53L555.24 324.52L555.22 324.48L555.18 324.42L555.12 324.34L555.05 324.25L554.95 324.13L554.85 324.01L554.72 323.87L554.58 323.72L554.43 323.56L554.26 323.39L554.08 323.22L553.88 323.05L553.67 322.88L553.44 322.7L553.21 322.53L552.95 322.37L552.69 322.21L552.41 322.06L552.13 321.92L551.82 321.79L551.51 321.68L551.19 321.58L550.86 321.51L550.51 321.45L550.16 321.41L549.79 321.4L548.39 321.51L546.98 321.83ZM603.18 262.93L602.42 263.47L601.62 264.21L600.77 265.14L599.9 266.26L598.99 267.56L598.05 269.03L597.09 270.67L596.11 272.46L595.1 274.4L594.09 276.49L593.06 278.7L592.02 281.04L590.97 283.5L589.93 286.07L588.88 288.75L587.84 291.52L586.81 294.37L585.79 297.31L584.78 300.32L583.79 303.4L582.82 306.53L581.87 309.71L580.95 312.94L580.06 316.2L579.21 319.48L578.39 322.79L577.61 326.11L576.88 329.43L576.19 332.75L576.29 332.59L576.57 332.14L577.01 331.41L577.62 330.43L578.37 329.19L579.25 327.73L580.25 326.06L581.35 324.19L582.55 322.14L583.83 319.94L585.18 317.59L586.59 315.11L588.04 312.52L589.52 309.83L591.02 307.07L592.52 304.24L594.02 301.37L595.5 298.47L596.95 295.56L598.36 292.66L599.7 289.78L600.98 286.93L602.18 284.14L603.29 281.43L604.28 278.8L605.16 276.27L605.91 273.87L606.51 271.61L606.96 269.5L607.24 267.56L607.33 265.82L607.33 265.63L607.31 265.45L607.3 265.27L607.27 265.09L607.25 264.92L607.21 264.75L607.17 264.59L607.12 264.43L607.07 264.28L607.02 264.13L606.95 263.99L606.88 263.85L606.81 263.72L606.73 263.6L606.65 263.48L606.55 263.36L606.46 263.25L606.36 263.15L606.25 263.06L606.14 262.97L606.02 262.89L605.9 262.82L605.77 262.75L605.64 262.69L605.5 262.64L605.36 262.59L605.21 262.55L605.06 262.53L604.9 262.51L604.73 262.49L604.57 262.49L603.9 262.6L603.18 262.93Z" id="a6m7dhoYL"></path><path d="M0 389.25L214.03 389.25" id="b8irMmt69v"></path><path d="M640 371.44C640 379.07 633.21 389.25 623.46 389.25C616.67 389.25 612.43 384.8 612.43 378.01C612.43 370.37 620.27 360.62 628.97 360.62C635.33 360.62 640 364.65 640 371.44Z" id="jaJqnWE9U"></path></defs><g><g><g><use xlink:href="#e6651FMr4" opacity="1" fill="#000000" fill-opacity="1"></use><g><use xlink:href="#e6651FMr4" opacity="1" fill-opacity="0" stroke="#000000" stroke-width="1" stroke-opacity="0"></use></g></g><g><use xlink:href="#a86VCNRZyE" opacity="1" fill="#000000" fill-opacity="1"></use><g><use xlink:href="#a86VCNRZyE" opacity="1" fill-opacity="0" stroke="#000000" stroke-width="1" stroke-opacity="0"></use></g></g><g><use xlink:href="#aFNQhCAt8" opacity="1" fill="#000000" fill-opacity="1"></use><g><use xlink:href="#aFNQhCAt8" opacity="1" fill-opacity="0" stroke="#000000" stroke-width="1" stroke-opacity="0"></use></g></g><g><use xlink:href="#aQ6xAud00" opacity="1" fill="#000000" fill-opacity="1"></use><g><use xlink:href="#aQ6xAud00" opacity="1" fill-opacity="0" stroke="#000000" stroke-width="1" stroke-opacity="0"></use></g></g><g><use xlink:href="#aPSAE2QVZ" opacity="1" fill="#000000" fill-opacity="1"></use><g><use xlink:href="#aPSAE2QVZ" opacity="1" fill-opacity="0" stroke="#000000" stroke-width="1" stroke-opacity="0"></use></g></g><g><use xlink:href="#b27RCyOSl7" opacity="1" fill="#000000" fill-opacity="1"></use><g><use xlink:href="#b27RCyOSl7" opacity="1" fill-opacity="0" stroke="#000000" stroke-width="1" stroke-opacity="0"></use></g></g><g><use xlink:href="#a6m7dhoYL" opacity="1" fill="#000000" fill-opacity="1"></use><g><use xlink:href="#a6m7dhoYL" opacity="1" fill-opacity="0" stroke="#000000" stroke-width="1" stroke-opacity="0"></use></g></g><g><use xlink:href="#b8irMmt69v" opacity="1" fill="#000000" fill-opacity="0"></use><g><use xlink:href="#b8irMmt69v" opacity="1" fill-opacity="0" stroke="#000000" stroke-width="1" stroke-opacity="0"></use></g></g><g><use xlink:href="#jaJqnWE9U" opacity="1" fill="#95ca6e" fill-opacity="1"></use><g><use xlink:href="#jaJqnWE9U" opacity="1" fill-opacity="0" stroke="#000000" stroke-width="1" stroke-opacity="0"></use></g></g></g></g></svg>