<svg xmlns="http://www.w3.org/2000/svg" viewBox="0 0 2539.43 590.5"><title>fdAsset 1</title><g id="Layer_2" data-name="Layer 2"><g id="Layer_1-2" data-name="Layer 1"><path d="M1494,487.62a138,138,0,0,1-36,36q-18.41,14.23-45.58,25.09t-64,10.87a231.63,231.63,0,0,1-32.62-2.51,157,157,0,0,1-44.33,24.67,148.79,148.79,0,0,1-51,8.78,139.69,139.69,0,0,1-91.58-34.29,117.5,117.5,0,0,1-28.44-37.64,104.87,104.87,0,0,1-10.45-46q0-52.69,18-93.26t46.42-68.17q28.42-27.6,62.73-41.82T1284,255.1a138.82,138.82,0,0,1,48.51,8.36,106.63,106.63,0,0,1,38.89,24.67,120.84,120.84,0,0,1,25.93,39.31q9.61,23,9.62,51.44,0,33.46-13.8,70.26a267.12,267.12,0,0,1-38.06,68.58,59.54,59.54,0,0,0,6.27,1.25,49.89,49.89,0,0,0,7.11.42q21.74,0,39.31-8.78A168,168,0,0,0,1438.76,491a228.29,228.29,0,0,0,28.44-28.44,16.37,16.37,0,0,1,4.18-5.86,29.26,29.26,0,0,1,5-3.76,14,14,0,0,1,7.53-2.09,17.48,17.48,0,0,1,12.13,5,15.5,15.5,0,0,1,5.44,11.71,15.73,15.73,0,0,1-1.26,6.27q-1.25,2.94-2.93,6.27T1494,487.62Zm-202.41-6.69a369.1,369.1,0,0,0,19.24-67.33q6.68-35.54,6.69-63.15,0-28.42-9.2-40.56t-23.42-12.13q-14.23,0-30.95,14.64t-31.36,41q-14.64,26.35-24.26,61.89t-9.62,78.2q0,25.09,10.45,41t29.69,15.89c8.91,0,36.69-20.29,45.05-27"/><path d="M1678.8,505.18q0,14.23,7.53,21.75t20.07,7.53q16.72,0,33-10.87a146.3,146.3,0,0,0,28.85-25.09,185.35,185.35,0,0,0,27.6-36,16.37,16.37,0,0,1,4.18-5.86,29.26,29.26,0,0,1,5-3.76,14,14,0,0,1,7.53-2.09,17.48,17.48,0,0,1,12.13,5,15.5,15.5,0,0,1,5.44,11.71,15.73,15.73,0,0,1-1.25,6.27q-1.25,2.94-2.93,6.27t-3.35,7.53a294.65,294.65,0,0,1-41,51.86,237.14,237.14,0,0,1-45.58,35.13,109,109,0,0,1-57.29,15.89q-24.27,0-43.49-6.69a112.7,112.7,0,0,1-33.46-18,78.06,78.06,0,0,1-21.75-26.35,71.91,71.91,0,0,1-7.53-32.62,157.94,157.94,0,0,1,8.36-51.86,415.79,415.79,0,0,1,18-44.33q9.61-20.07,18-35.55t8.36-25.51q0-6.68-7.95-10a139.28,139.28,0,0,0-17.15-5.85,236.67,236.67,0,0,0-25.09-4.18q-24.27,61.06-46,99.95T1494,487.62a74.33,74.33,0,0,1-6.27,7.53,15.67,15.67,0,0,1-12.13,5c-4.47,0-8.49-1.8-12.13-5.44s-5.44-7.66-5.44-12.13a19.61,19.61,0,0,1,3.76-11.29,75.84,75.84,0,0,0,5.44-8.78q11.7-16.72,33-53.11T1540,313.65a52.09,52.09,0,0,1-14.22-15.06,88.19,88.19,0,0,1-9.2-19.24q-4.19-11.7-4.18-27.6a62.5,62.5,0,0,1,4.6-23.84,66.56,66.56,0,0,1,12.13-19.66A70.07,70.07,0,0,1,1545,194.88q8.35-5,15.89-5a39.48,39.48,0,0,1,17.56,4.6,86.58,86.58,0,0,1,16.73,10.87,60.62,60.62,0,0,1,12.55,14.22q5,8,5,13.8,0,16.74-5.44,27.6t-5.44,20.91q0,9.22,10,13.38t25.09,4.18a141.76,141.76,0,0,0,23.84-1.67q9.6-1.67,17.15-3.76t14.22-3.76a58.67,58.67,0,0,1,14.22-1.67,30.52,30.52,0,0,1,24.67,11.71q9.61,11.72,9.62,28.44,0,14.23-9.62,33.87t-21.33,43.07a514.6,514.6,0,0,0-21.33,48.93A142.61,142.61,0,0,0,1678.8,505.18Z"/><path d="M1918,590.49a139.81,139.81,0,0,1-48.09-8.36,118.25,118.25,0,0,1-40.56-24.67,120.41,120.41,0,0,1-28-39.73q-10.45-23.41-10.45-52.69,0-41.81,9.62-92.84a741.92,741.92,0,0,1,27.18-102.46,947.06,947.06,0,0,1,40.56-99.95q23-48.5,50.6-86.57t57.29-60.64Q2005.8,0,2035.93,0a56.1,56.1,0,0,1,26.76,6.69,87.79,87.79,0,0,1,22.16,16.73,86.27,86.27,0,0,1,15.47,22.16q5.84,12.14,5.85,23,0,17.56-9.62,44.75a501.27,501.27,0,0,1-25.51,58.55q-15.9,31.36-37.22,64.82t-44.33,64.82q-23,31.36-46.42,58.55t-44.33,44.75q-1.69,10-3.35,20.91a191.65,191.65,0,0,0-2.51,20.49q-.84,11.29-.84,22.16,0,29.29,13.8,47.68t39.73,18.4q16.72,0,33-10.87a146.35,146.35,0,0,0,28.85-25.09,185.35,185.35,0,0,0,27.6-36,16.35,16.35,0,0,1,4.18-5.86,29.14,29.14,0,0,1,5-3.76,14,14,0,0,1,7.53-2.09,17.48,17.48,0,0,1,12.13,5,15.5,15.5,0,0,1,5.44,11.71,15.73,15.73,0,0,1-1.26,6.27q-1.25,2.94-2.93,6.27t-3.35,7.53a294.72,294.72,0,0,1-41,51.86,237.14,237.14,0,0,1-45.58,35.13A109,109,0,0,1,1918,590.49ZM2064.36,67.75q0-11.7-10-11.71Q2042.6,56,2023.8,82t-39.31,67.75q-20.51,41.83-40.57,93.68a808,808,0,0,0-32.62,104.55q14.21-11.7,31.37-33.45a517,517,0,0,0,33.87-48.93q16.72-27.17,32.62-56.46t28-56.46q12.12-27.17,19.66-49.76T2064.36,67.75Z"/><path d="M2368.81,590.49q-23.42,0-42.65-8.78a127,127,0,0,1-33-21.33,106.53,106.53,0,0,1-21.75-26.76q-8-14.21-8.78-25.09a293.91,293.91,0,0,1-42.66,41A238.38,238.38,0,0,1,2176,577.95q-24.68,12.55-50.6,12.55a85.6,85.6,0,0,1-34.71-7.53,99,99,0,0,1-30.53-20.91,105.44,105.44,0,0,1-30.11-74.44q0-51,20.07-94.1t50.18-73.6q30.11-30.52,64.82-47.67t64-17.15a107.32,107.32,0,0,1,21.75,2.09,116.72,116.72,0,0,1,16.73,4.6,118.07,118.07,0,0,1,14.22,6.69A873,873,0,0,1,2316.12,169q20.07-48.5,43.91-86.15t50.6-60.22Q2437.38,0,2466.67,0q12.55,0,25.51,6.69a89.49,89.49,0,0,1,23.42,17.56,93.51,93.51,0,0,1,17.15,25.09,66.38,66.38,0,0,1,6.69,28.44q0,15.06-7.95,37.64a453.37,453.37,0,0,1-20.91,48.93q-13,26.35-29.27,54.78t-33.87,56q-40.15,64.42-92,137.17-1.69,10.88-2.51,21.33t-.84,20.49q0,35.13,10.87,57.71t34.29,22.58q16.72,0,32.62-10.87a152.43,152.43,0,0,0,28.44-25.09,185.35,185.35,0,0,0,27.6-36,16.35,16.35,0,0,1,4.18-5.86,29.14,29.14,0,0,1,5-3.76,14,14,0,0,1,7.53-2.09,17.48,17.48,0,0,1,12.13,5,15.5,15.5,0,0,1,5.44,11.71,15.73,15.73,0,0,1-1.26,6.27q-1.25,2.94-2.93,6.27t-3.35,7.53a294.72,294.72,0,0,1-41,51.86,237.19,237.19,0,0,1-45.58,35.13A109,109,0,0,1,2368.81,590.49Zm-97.86-275.17q-3.35-3.33-6.69-6.69a49.9,49.9,0,0,0-7.53-4.6,20.42,20.42,0,0,0-9.2-2.09q-20.07,0-40.56,19.24t-36.8,47.25a295.39,295.39,0,0,0-26.35,59.8q-10,31.8-10,57.71,0,22.58,8.36,35.13t22.58,12.54q13.37,0,29.27-10.45a222,222,0,0,0,30.11-23.84,412.37,412.37,0,0,0,32.62-35.13q.82-37.64,4.6-74T2270.95,315.32Zm89.49,35.13q36.8-60.22,66.08-115.42,12.55-23.41,24.67-48.09t21.33-47.26q9.19-22.58,15.06-41.82t5.85-33.46q0-14.21-11.71-14.22-10.88,0-26.76,26.35t-33.46,69q-17.56,42.66-33.87,96.18A1104.37,1104.37,0,0,0,2360.44,350.45Z"/><path d="M377.61,65a93.27,93.27,0,0,0-37.37,7.4,97.77,97.77,0,0,0-29.59,19.46,87.89,87.89,0,0,0-19.46,28,81.53,81.53,0,0,0-7,33.09,136.78,136.78,0,0,0,8.56,47.49,329.55,329.55,0,0,0,21,45.94Q326.21,269,341,291.52t27.25,45.16a354.92,354.92,0,0,1,21,45.16,128.68,128.68,0,0,1,8.56,45.94,131.39,131.39,0,0,1-16.35,64.62,174.07,174.07,0,0,1-43.21,51.39A211,211,0,0,1,277.56,578a198.39,198.39,0,0,1-68.9,12.46q-49.84,0-88.76-13.63T54.5,542.22Q28,521.2,14,495.51T0,444.9q0-24.12,17.91-46.33A181.58,181.58,0,0,1,61.12,360,254.17,254.17,0,0,1,113.67,334q27.24-9.73,45.94-9.73,13.23,0,13.24,13.24a11.51,11.51,0,0,1-3.89,9q-3.91,3.5-12.46,9.73-9.34,7.79-18.69,16a112.3,112.3,0,0,0-16.74,18.3,91.69,91.69,0,0,0-12.07,23q-4.67,12.85-4.67,30a81.75,81.75,0,0,0,6.62,31.53,99.26,99.26,0,0,0,47.88,51q17.12,8.58,38.15,8.56,44.38,0,71.63-25.69t27.25-70.07q0-28.8-17.52-60t-38.15-64.23Q219.55,281.41,202,246t-17.52-72.8q0-36.59,18.69-65a173,173,0,0,1,47.88-48.27,228.88,228.88,0,0,1,65.4-30.36A254.68,254.68,0,0,1,387.73,19,210.53,210.53,0,0,1,429,22.91a127.25,127.25,0,0,1,34.26,11.68A69.18,69.18,0,0,1,487,54.44q8.94,12.08,9,28.42,0,21-13.24,41.26a190.83,190.83,0,0,1-31.14,36.59A185.7,185.7,0,0,1,415,187.19q-18.69,10.13-28.81,10.12a12.7,12.7,0,0,1-9.34-3.89c-2.6-2.59-3.89-5.18-3.89-7.79a15,15,0,0,1,1.95-7.4,95.38,95.38,0,0,1,8.17-11.29,232.47,232.47,0,0,0,21.8-32.31q10.89-19.07,10.9-37.76,0-15.56-10.51-23.75T377.61,65Z"/><path d="M519.89,590.5a130.14,130.14,0,0,1-44.77-7.79,110.06,110.06,0,0,1-37.76-23,112,112,0,0,1-26.08-37q-9.73-21.79-9.73-49.05,0-38.92,9-86.42a690.58,690.58,0,0,1,25.3-95.38,881.49,881.49,0,0,1,37.76-93q21.4-45.15,47.1-80.58T574,61.84q27.63-21,55.67-21A52.22,52.22,0,0,1,654.58,47a81.72,81.72,0,0,1,20.63,15.57,80.34,80.34,0,0,1,14.4,20.63q5.44,11.3,5.45,21.41,0,16.35-9,41.65a466.52,466.52,0,0,1-23.75,54.5q-14.8,29.2-34.65,60.34T586.46,321.5Q565,350.69,543.24,376T502,417.65q-1.57,9.34-3.11,19.46a178.8,178.8,0,0,0-2.34,19.08q-.78,10.51-.78,20.63,0,27.26,12.85,44.38t37,17.13q15.57,0,30.75-10.12a136.29,136.29,0,0,0,26.86-23.36,172.54,172.54,0,0,0,25.69-33.48,15.22,15.22,0,0,1,3.89-5.45,27.1,27.1,0,0,1,4.67-3.5,13,13,0,0,1,7-1.95,16.28,16.28,0,0,1,11.29,4.67,14.43,14.43,0,0,1,5.06,10.9,14.64,14.64,0,0,1-1.17,5.84q-1.17,2.74-2.72,5.84t-3.11,7A274.34,274.34,0,0,1,615.65,543a220.76,220.76,0,0,1-42.43,32.7A101.48,101.48,0,0,1,519.89,590.5ZM656.14,103.88q0-10.89-9.34-10.9-10.91,0-28.42,24.14t-36.59,63.06Q562.7,219.12,544,267.38a752.12,752.12,0,0,0-30.36,97.32q13.23-10.89,29.2-31.14A481.1,481.1,0,0,0,574.39,288q15.57-25.29,30.36-52.55t26.08-52.55q11.28-25.29,18.3-46.33T656.14,103.88Z"/><path d="M864,293.08a30.54,30.54,0,0,1,8.56-10.51,20.79,20.79,0,0,1,13.24-4.28q8.56,0,19.07,5.45a142.18,142.18,0,0,1,19.85,12.46,94.37,94.37,0,0,1,15.57,14.4q6.22,7.41,6.23,12.07,0,17.13-7.4,39.32t-16.74,47.88q-9.34,25.69-16.74,54.11a226.05,226.05,0,0,0-7.4,57.23q0,23.36,20.24,23.36t39.32-23q19.07-23,34.26-59.17t24.14-81a446.57,446.57,0,0,0,9-87.59q0-15.57,16.35-15.57,8.56,0,19.46,4.67a71.81,71.81,0,0,1,20.24,13.24,82.4,82.4,0,0,1,16,20.24,49.83,49.83,0,0,1,6.62,24.91q0,35-16.74,78.64a341,341,0,0,1-44.77,81.36,279,279,0,0,1-65,63.45q-37,25.69-77.47,25.69-21.81,0-38.54-9.73a137.54,137.54,0,0,1-28.42-21.41A181.82,181.82,0,0,1,808,528.21,258.58,258.58,0,0,1,776,559.35a192.23,192.23,0,0,1-34.65,21.41A95.19,95.19,0,0,1,699,590.5a73.43,73.43,0,0,1-27.64-5.84,92.57,92.57,0,0,1-26.08-16,88.24,88.24,0,0,1-19.46-24.14A60.11,60.11,0,0,1,618,515q0-21,7-52.16t16.35-63.45q9.34-32.3,19.85-61.12t17.52-45.16a30.53,30.53,0,0,1,8.56-10.51,19.64,19.64,0,0,1,12.46-4.28q8.56,0,19.46,5.45a132.61,132.61,0,0,1,20.24,12.46A94.37,94.37,0,0,1,755,310.6q6.22,7.41,6.23,12.07,0,17.92-7.79,39.71t-17.52,47.1q-9.74,25.31-17.52,52.94a204.3,204.3,0,0,0-7.79,55.67,28.78,28.78,0,0,0,4.67,16.35,15,15,0,0,0,13.24,7q9.34,0,19.46-6.23a114.67,114.67,0,0,0,20.63-16.74,145.25,145.25,0,0,0,19.85-25.3,204.36,204.36,0,0,0,16.35-31.92q7.77-21,16-44t16-45.94q7.77-23,14.4-43.21T864,293.08Z"/></g></g></svg>